<?xml version="1.0" standalone="no"?>
<!DOCTYPE svg PUBLIC "-//W3C//DTD SVG 20010904//EN"
 "http://www.w3.org/TR/2001/REC-SVG-20010904/DTD/svg10.dtd">
<svg version="1.0" xmlns="http://www.w3.org/2000/svg"
 width="512.000000pt" height="512.000000pt" viewBox="0 0 512.000000 512.000000"
 preserveAspectRatio="xMidYMid meet">

<g transform="translate(0.000000,512.000000) scale(0.100000,-0.100000)"
fill="#000000" stroke="none">
<path d="M1980 4799 c-210 -35 -416 -156 -544 -319 -269 -342 -242 -843 62
-1146 120 -120 252 -196 417 -240 104 -27 313 -26 418 4 327 93 564 342 634
666 21 95 20 261 -1 359 -21 95 -70 214 -121 293 -61 93 -198 222 -295 277
-176 98 -382 137 -570 106z m271 -357 c220 -58 383 -271 383 -502 0 -176 -90
-340 -237 -434 -201 -129 -458 -105 -634 58 -207 192 -220 517 -29 724 133
145 329 203 517 154z"/>
<path d="M1590 2724 c-399 -67 -719 -345 -824 -717 -42 -147 -46 -217 -46
-900 0 -690 0 -687 48 -740 27 -30 88 -57 127 -57 49 0 108 32 142 77 l28 36
5 706 c5 632 8 712 23 766 24 84 58 149 118 228 80 106 174 174 310 225 l74
27 492 3 c554 3 566 2 710 -69 93 -46 190 -130 247 -212 21 -30 56 -101 79
-157 51 -126 87 -161 169 -167 105 -8 188 69 188 173 0 76 -80 258 -162 369
-136 184 -328 318 -549 382 l-94 27 -530 2 c-291 1 -541 0 -555 -2z"/>
<path d="M2475 1834 c-16 -8 -137 -122 -268 -252 -256 -255 -276 -284 -262
-359 4 -21 15 -51 25 -68 34 -54 464 -474 503 -490 51 -21 95 -19 147 8 77 38
112 115 90 198 -9 32 -31 63 -87 121 l-76 77 859 3 c822 3 861 4 897 22 102
50 125 196 45 273 -66 62 -7 58 -942 61 l-859 3 76 77 c81 84 104 132 91 197
-20 107 -148 176 -239 129z"/>
<path d="M3265 756 c-42 -18 -82 -68 -96 -119 -17 -62 -7 -196 17 -238 55 -93
181 -116 260 -47 55 49 64 75 64 188 0 81 -4 108 -20 140 -38 75 -145 111
-225 76z"/>
</g>
</svg>
