<svg width="28" height="22" viewBox="0 0 28 22" fill="none" xmlns="http://www.w3.org/2000/svg">
<path d="M25.9666 4.1166V17.4166C25.9666 18.1725 25.6663 18.8974 25.1319 19.4319C24.5974 19.9663 23.8725 20.2666 23.1166 20.2666H4.1166C3.36073 20.2666 2.63583 19.9663 2.10135 19.4319C1.56687 18.8974 1.2666 18.1725 1.2666 17.4166V4.1166M25.9666 4.1166C25.9666 3.36073 25.6663 2.63583 25.1319 2.10135C24.5974 1.56687 23.8725 1.2666 23.1166 1.2666H4.1166C3.36073 1.2666 2.63583 1.56687 2.10135 2.10135C1.56687 2.63583 1.2666 3.36073 1.2666 4.1166M25.9666 4.1166V4.4244C25.9667 4.91099 25.8421 5.38948 25.6049 5.81431C25.3676 6.23914 25.0256 6.59615 24.6113 6.85134L15.1113 12.697C14.6619 12.9738 14.1444 13.1204 13.6166 13.1204C13.0888 13.1204 12.5713 12.9738 12.1219 12.697L2.62193 6.8526C2.20763 6.59741 1.86557 6.2404 1.62832 5.81558C1.39108 5.39075 1.26655 4.91225 1.2666 4.42567V4.1166" stroke="#757575" stroke-width="2.53333" stroke-linecap="round" stroke-linejoin="round"/>
</svg>
