<svg width="33" height="34" viewBox="0 0 33 34" fill="none" xmlns="http://www.w3.org/2000/svg">
<path d="M21.1635 11.8188L20.5344 26.0006M11.8289 26.0006L11.1998 11.8188M29.3235 6.76064C29.9453 6.84258 30.5635 6.92925 31.1816 7.02222M29.3235 6.76064L27.3816 28.6369C27.3024 29.5275 26.8381 30.3595 26.0817 30.9662C25.3252 31.573 24.3324 31.91 23.3016 31.9097H9.06164C8.03091 31.91 7.03805 31.573 6.2816 30.9662C5.52516 30.3595 5.06089 29.5275 4.98164 28.6369L3.03982 6.76064M29.3235 6.76064C27.225 6.4857 25.1158 6.27704 22.9998 6.13507M3.03982 6.76064C2.418 6.84101 1.79982 6.92767 1.18164 7.02064M3.03982 6.76064C5.13825 6.4857 7.24752 6.27704 9.36346 6.13507M22.9998 6.13507V4.69167C22.9998 2.83228 21.3453 1.28173 19.1998 1.22343C17.1882 1.16771 15.1751 1.16771 13.1635 1.22343C11.018 1.28173 9.36346 2.83386 9.36346 4.69167V6.13507M22.9998 6.13507C18.4611 5.83107 13.9021 5.83107 9.36346 6.13507" stroke="#FF3737" stroke-width="2.36364" stroke-linecap="round" stroke-linejoin="round"/>
</svg>
